Coordinates
version=1
nRows=15
nColumns=38
inDegrees=yes

Units are S.I. units (second, meters, Newtons, ...)
Angles are in degrees.

endheader
time	pelvis_tilt	pelvis_list	pelvis_rotation	pelvis_tx	pelvis_ty	pelvis_tz	hip_flexion_r	hip_adduction_r	hip_rotation_r	knee_angle_r	ankle_angle_r	subtalar_angle_r	mtp_angle_r	hip_flexion_l	hip_adduction_l	hip_rotation_l	knee_angle_l	ankle_angle_l	subtalar_angle_l	mtp_angle_l	lumbar_extension	lumbar_bending	lumbar_rotation	arm_flex_r	arm_add_r	arm_rot_r	elbow_flex_r	pro_sup_r	wrist_flex_r	wrist_dev_r	arm_flex_l	arm_add_l	arm_rot_l	elbow_flex_l	pro_sup_l	wrist_flex_l	wrist_dev_l
      4.77000000	      3.55279934	     -0.88501570	      0.91126547	      0.03273077	      0.85440650	      2.56482692	     19.55663995	      0.55028718	    -11.11574981	    -10.22434035	     -8.93534124	      0.00000000	      0.00000000	    -17.59593178	     -1.91465648	     -1.22409411	    -20.13224916	      2.69529173	      0.00000000	      0.00000000	     -7.79038819	      3.15013056	     -2.37717218	     -2.99366950	    -11.52521863	     -9.73190384	      1.57887028	    108.53192996	      0.00000000	      0.00000000	     15.62268628	    -13.58387086	      3.21210296	     39.18238534	     93.70349087	      0.00000000	      0.00000000
      4.78000000	      3.58302356	     -1.49978546	      1.03842665	      0.03496567	      0.85506978	      2.56665336	     19.24848555	      1.20866298	    -11.18530111	    -11.06337760	     -9.43167161	      0.00000000	      0.00000000	    -17.07299939	     -2.79673957	     -1.24647657	    -22.44314648	      0.48348593	      0.00000000	      0.00000000	     -7.64112589	      3.76497290	     -2.40337061	     -3.23478483	    -11.50702840	     -9.50214016	      1.56377607	    108.29637526	      0.00000000	      0.00000000	     15.02438365	    -13.42730985	      2.78516989	     39.95568784	     94.10997062	      0.00000000	      0.00000000
      4.79000000	      3.61609969	     -2.10730422	      1.17509726	      0.03719530	      0.85605044	      2.56853371	     18.94764386	      1.89170176	    -11.00535858	    -12.09689979	     -9.42819498	      0.00000000	      0.00000000	    -16.31944002	     -3.67487005	     -1.28451260	    -24.98231932	     -2.12525108	      0.00000000	      0.00000000	     -7.47663988	      4.34845986	     -2.43803249	     -3.41645358	    -11.46550178	     -9.21920871	      1.59057773	    107.89353348	      0.00000000	      0.00000000	     14.37754477	    -13.26391776	      2.39071524	     40.64863302	     94.46460533	      0.00000000	      0.00000000
      4.80000000	      3.66780813	     -2.69651234	      1.32429041	      0.03926181	      0.85729670	      2.57059421	     18.67416938	      2.59663948	    -10.56739358	    -13.24975436	     -8.90615115	      0.00000000	      0.00000000	    -15.33502846	     -4.54035220	     -1.25998045	    -27.72445132	     -5.12414275	      0.00000000	      0.00000000	     -7.32568717	      4.87407656	     -2.48312822	     -3.52785227	    -11.38858819	     -8.89304561	      1.66975607	    107.35269303	      0.00000000	      0.00000000	     13.70546274	    -13.11572201	      2.05270521	     41.28793058	     94.75593470	      0.00000000	      0.00000000
      4.81000000	      3.72521758	     -3.25287849	      1.49240317	      0.04099474	      0.85864367	      2.57272533	     18.39822003	      3.32546084	     -9.91643570	    -14.40550612	     -7.96028660	      0.00000000	      0.00000000	    -14.10688771	     -5.38640221	     -1.09244080	    -30.66924696	     -8.49138760	      0.00000000	      0.00000000	     -7.21465601	      5.33278576	     -2.53463317	     -3.55396515	    -11.27740132	     -8.52792652	      1.81387157	    106.70180424	      0.00000000	      0.00000000	     13.03412983	    -12.99866379	      1.78423494	     41.88839880	     94.98149029	      0.00000000	      0.00000000
      4.82000000	      3.77404828	     -3.77224140	      1.68884423	      0.04232051	      0.86004257	      2.57483273	     18.07470821	      4.06401608	     -9.13778333	    -15.45539687	     -6.75614141	      0.00000000	      0.00000000	    -12.63291739	     -6.19922993	     -0.72840485	    -33.84534477	    -12.17630221	      0.00000000	      0.00000000	     -7.15959287	      5.73038058	     -2.58919706	     -3.48807124	    -11.14020392	     -8.12391172	      2.03132021	    105.96499988	      0.00000000	      0.00000000	     12.38655285	    -12.91542450	      1.58850157	     42.44472487	     95.14416752	      0.00000000	      0.00000000
      4.83000000	      3.81517691	     -4.25677946	      1.92125836	      0.04320778	      0.86153397	      2.57690997	     17.66943559	      4.78128217	     -8.34141072	    -16.32602691	     -5.47100742	      0.00000000	      0.00000000	    -10.92645897	     -6.95078494	     -0.16381214	    -37.27435144	    -16.07049542	      0.00000000	      0.00000000	     -7.16284618	      6.07915241	     -2.64967360	     -3.33796294	    -10.98477250	     -7.67950613	      2.32293178	    105.16181333	      0.00000000	      0.00000000	     11.78316425	    -12.85306586	      1.46357953	     42.93633778	     95.24949450	      0.00000000	      0.00000000
      4.84000000	      3.85881980	     -4.69868598	      2.19491053	      0.04373552	      0.86308562	      2.57889769	     17.16258091	      5.44468732	     -7.64196249	    -16.98470044	     -4.24434081	      0.00000000	      0.00000000	     -9.00621657	     -7.60302839	      0.55620857	    -40.92092469	    -19.97263770	      0.00000000	      0.00000000	     -7.21489271	      6.38515745	     -2.71957856	     -3.12074639	    -10.81864794	     -7.19421891	      2.68305734	    104.30824005	      0.00000000	      0.00000000	     11.24031076	    -12.79063453	      1.40649739	     43.33621807	     95.30420198	      0.00000000	      0.00000000
      4.85000000	      3.90848059	     -5.08228584	      2.51477201	      0.04402604	      0.86459976	      2.58068695	     16.54878998	      6.02345245	     -7.13654336	    -17.42701823	     -3.15215175	      0.00000000	      0.00000000	     -6.89843813	     -8.12175358	      1.35850093	    -44.67642258	    -23.56837396	      0.00000000	      0.00000000	     -7.30118708	      6.63942552	     -2.79283556	     -2.85232077	    -10.65290600	     -6.66981642	      3.10294523	    103.41959461	      0.00000000	      0.00000000	     10.76484241	    -12.71249819	      1.41498196	     43.61595945	     95.31546991	      0.00000000	      0.00000000
      4.86000000	      3.95609931	     -5.39116504	      2.88456895	      0.04403075	      0.86600091	      2.58215672	     15.83966788	      6.48957683	     -6.88735002	    -17.66154376	     -2.20845770	      0.00000000	      0.00000000	     -4.65062391	     -8.48909771	      2.16861723	    -48.39134099	    -26.45434442	      0.00000000	      0.00000000	     -7.40716060	      6.82351335	     -2.85745463	     -2.54224021	    -10.50024036	     -6.11041605	      3.57252721	    102.51395049	      0.00000000	      0.00000000	     10.35750470	    -12.61321712	      1.48891221	     43.75189521	     95.29062146	      0.00000000	      0.00000000
      4.87000000	      3.99338821	     -5.61233275	      3.30397782	      0.04369674	      0.86729230	      2.58328604	     15.05886154	      6.82422149	     -6.91330246	    -17.70388097	     -1.38652989	      0.00000000	      0.00000000	     -2.33246150	     -8.70661581	      2.92903215	    -51.92704923	    -28.22516496	      0.00000000	      0.00000000	     -7.51806052	      6.92425148	     -2.91048287	     -2.19520674	    -10.36879690	     -5.52259359	      4.08008344	    101.61410521	      0.00000000	      0.00000000	     10.02217655	    -12.49147740	      1.63149510	     43.73207561	     95.23739214	      0.00000000	      0.00000000
      4.88000000	      4.01964075	     -5.74197776	      3.77049625	      0.04313663	      0.86852472	      2.58417393	     14.22674294	      7.02619798	     -7.19135696	    -17.57881076	     -0.64645736	      0.00000000	      0.00000000	     -0.01497494	     -8.78734179	      3.60525350	    -55.18820128	    -28.60623869	      0.00000000	      0.00000000	     -7.62179723	      6.94272733	     -2.96222400	     -1.81386467	    -10.25887308	     -4.91610536	      4.61168842	    100.74685293	      0.00000000	      0.00000000	      9.76151333	    -12.34697206	      1.84698838	     43.55314979	     95.16444539	      0.00000000	      0.00000000
      4.89000000	      4.03860138	     -5.78716114	      4.28076153	      0.04245087	      0.86973661	      2.58484432	     13.35002189	      7.11761298	     -7.66603136	    -17.31943216	      0.04375901	      0.00000000	      0.00000000	      2.25390635	     -8.74374835	      4.18613008	    -58.12140062	    -27.57326592	      0.00000000	      0.00000000	     -7.71509678	      6.89290260	     -3.02576297	     -1.39922574	    -10.16408709	     -4.30447509	      5.15187791	     99.94017178	      0.00000000	      0.00000000	      9.56467610	    -12.18528847	      2.13481088	     43.20988546	     95.08146870	      0.00000000	      0.00000000
      4.90000000	      4.05415320	     -5.76469846	      4.82477654	      0.04166555	      0.87099332	      2.58529942	     12.42676829	      7.13527293	     -8.26289797	    -16.96033514	      0.69977072	      0.00000000	      0.00000000	      4.45516230	     -8.58249378	      4.68352316	    -60.69231507	    -25.38904712	      0.00000000	      0.00000000	     -7.80224932	      6.79301552	     -3.10484872	     -0.94735954	    -10.07710566	     -3.70419916	      5.68606628	     99.21991118	      0.00000000	      0.00000000	      9.40814597	    -12.02111482	      2.48411532	     42.69251836	     94.99802520	      0.00000000	      0.00000000
      4.91000000	      4.06922873	     -5.69569229	      5.37852534	      0.04080106	      0.87234918	      2.58565929	     11.45864337	      7.11300385	     -8.90256054	    -16.53064445	      1.32295561	      0.00000000	      0.00000000	      6.58404780	     -8.30839296	      5.12571192	    -62.86459107	    -22.52475702	      0.00000000	      0.00000000	     -7.88649634	      6.65534647	     -3.18757954	     -0.44708731	     -9.99613291	     -3.13163990	      6.20272403	     98.60753603	      0.00000000	      0.00000000	      9.26751358	    -11.87284611	      2.87286243	     41.99493484	     94.92137778	      0.00000000	      0.00000000
